# xmcd CD database file
#
# Track frame offsets:
#	150
#	16612
#	39337
#
# Disc length: 741 seconds
#
# Revision: 0
# Processed by: cddbd v1.5PL3 Copyright (c) Steve Scherf et al.
# Submitted via: CDex 1.51
#
DISCID=1202e303
DTITLE=Laputa - Virgin cry
DYEAR=1999
DGENRE=Rock
TTITLE0=Virgin cry
TTITLE1=Tomorrow
TTITLE2=Virgin cry  instrumental
EXTD=YEAR: 1999
EXTT0=
EXTT1=
EXTT2=
PLAYORDER=
